<?xml version="1.0" standalone="no"?>
<!DOCTYPE svg PUBLIC "-//W3C//DTD SVG 20010904//EN"
 "http://www.w3.org/TR/2001/REC-SVG-20010904/DTD/svg10.dtd">
<svg version="1.0" xmlns="http://www.w3.org/2000/svg"
 width="632.000000pt" height="694.000000pt" viewBox="0 0 632.000000 694.000000"
 preserveAspectRatio="xMidYMid meet">

<g transform="translate(0.000000,694.000000) scale(0.100000,-0.100000)"
fill="#e6d2b2" stroke="none">
<path d="M4557 6656 c-126 -45 -256 -162 -441 -396 -81 -104 -406 -626 -406
-654 0 -2 -16 -33 -36 -68 -61 -107 -334 -657 -334 -673 0 -1 -20 -45 -44 -96
-42 -90 -189 -428 -256 -591 -17 -42 -37 -79 -45 -82 -17 -6 -114 70 -140 110
-12 19 -17 43 -15 74 5 94 3 110 -16 131 -33 37 -76 52 -144 53 -78 1 -129
-21 -168 -71 -50 -67 -29 -130 64 -190 106 -69 104 -67 104 -144 0 -51 7 -86
26 -134 41 -102 38 -104 -166 -86 -58 6 -139 12 -180 15 -41 3 -113 8 -160 11
-130 10 -590 12 -725 4 -333 -19 -527 -47 -775 -111 -257 -67 -456 -167 -577
-290 -116 -119 -129 -173 -64 -255 134 -170 351 -300 581 -348 76 -16 302 -22
390 -10 63 8 240 44 270 54 14 5 52 17 85 26 84 24 266 96 380 149 292 137
627 351 983 630 18 14 29 17 41 9 29 -18 25 -49 -11 -77 -18 -14 -113 -88
-210 -163 -97 -76 -243 -190 -325 -254 -81 -64 -247 -185 -368 -269 -291 -203
-392 -284 -565 -459 -207 -207 -316 -378 -351 -548 -11 -55 -11 -67 4 -98 22
-45 93 -79 222 -106 249 -52 526 21 785 207 303 217 561 547 637 814 39 138
111 341 198 560 108 270 116 285 140 285 20 0 44 -39 180 -290 26 -49 168
-310 315 -580 147 -269 446 -818 665 -1220 581 -1067 585 -1075 600 -1075 8 0
17 5 20 10 3 6 -352 729 -790 1607 -437 878 -793 1603 -791 1610 7 17 41 16
91 -3 384 -144 993 -238 1420 -219 314 13 488 39 785 115 132 34 330 123 452
202 250 164 381 382 366 613 -12 185 -149 267 -443 267 -177 0 -503 -47 -703
-102 -21 -5 -89 -23 -152 -41 -207 -55 -642 -195 -825 -264 -38 -14 -90 -33
-115 -42 -25 -8 -84 -30 -132 -49 -49 -19 -130 -50 -180 -70 -51 -19 -206 -82
-344 -140 -138 -57 -258 -104 -267 -104 -9 0 -21 10 -28 21 -15 30 7 48 106
89 279 113 542 267 810 471 177 135 396 361 549 566 446 598 579 1288 306
1578 -90 94 -186 125 -283 91z"/>
</g>
</svg>
