<?xml version="1.0" standalone="no"?>
<!DOCTYPE svg PUBLIC "-//W3C//DTD SVG 20010904//EN"
 "http://www.w3.org/TR/2001/REC-SVG-20010904/DTD/svg10.dtd">
<svg version="1.0" xmlns="http://www.w3.org/2000/svg"
 width="1920.000000pt" height="800.000000pt" viewBox="0 0 1920.000000 800.000000"
 preserveAspectRatio="xMidYMid meet">

<g transform="translate(0.000000,800.000000) scale(0.100000,-0.100000)"
fill="#dcc6a3" stroke="none">
<path d="M775 7970 c9 -16 63 -76 121 -132 169 -163 276 -305 400 -528 118
-213 203 -314 309 -366 52 -25 71 -29 145 -29 73 0 93 4 145 29 88 42 226 187
349 364 113 163 236 294 341 363 39 26 129 81 201 124 126 73 189 123 222 173
8 12 12 26 8 29 -3 4 -14 -4 -23 -18 -32 -47 -93 -96 -200 -158 -332 -195
-381 -240 -588 -533 -119 -168 -219 -271 -308 -319 -57 -31 -69 -34 -147 -34
-70 0 -94 4 -135 25 -68 34 -180 150 -236 246 -224 384 -263 439 -442 618 -71
72 -136 140 -144 153 -22 34 -36 28 -18 -7z"/>
<path d="M1471 7969 c-16 -46 -14 -202 4 -305 28 -158 124 -317 218 -363 57
-28 137 -28 194 0 100 48 212 217 258 390 39 148 32 202 -34 246 -42 28 -156
63 -202 62 -32 -1 -31 -2 16 -16 28 -8 75 -22 105 -31 78 -23 120 -66 120
-124 -1 -93 -61 -266 -127 -364 -46 -67 -121 -140 -159 -154 -42 -16 -122 -12
-163 10 -78 39 -156 155 -192 284 -18 64 -23 109 -23 211 -1 72 2 142 7 158
10 38 -8 34 -22 -4z"/>
<path d="M5065 7973 c-133 -69 -344 -123 -483 -123 -45 0 -147 12 -229 27
-189 35 -440 39 -538 9 -170 -51 -279 -169 -305 -330 -20 -125 18 -440 70
-579 50 -134 189 -295 297 -344 49 -23 72 -27 143 -27 74 0 104 7 230 48 215
71 298 88 425 90 137 1 232 -21 313 -73 86 -57 133 -115 205 -257 82 -160 138
-244 336 -502 254 -330 379 -533 416 -673 31 -116 14 -252 -46 -371 -51 -102
-127 -166 -374 -319 -462 -286 -532 -319 -691 -327 -90 -4 -119 0 -290 37
-104 22 -270 56 -370 76 -306 59 -399 93 -618 228 -119 73 -204 105 -300 113
-216 19 -434 -122 -506 -328 -20 -56 -23 -94 -31 -343 -13 -416 -26 -571 -71
-810 -35 -189 -15 -317 73 -452 57 -88 301 -317 699 -657 327 -280 429 -335
640 -344 180 -7 280 27 380 127 55 56 94 129 155 291 154 409 364 638 637 696
141 31 357 -3 595 -92 260 -97 480 -251 555 -390 36 -67 233 -586 247 -652 25
-117 8 -228 -54 -360 -98 -208 -303 -405 -510 -491 -156 -65 -239 -79 -650
-111 -271 -21 -404 -36 -460 -50 -101 -26 -260 -104 -345 -169 -106 -80 -283
-262 -343 -353 -56 -84 -102 -176 -92 -186 7 -7 7 -8 54 83 104 203 375 460
584 555 123 56 200 69 557 95 468 35 586 58 760 145 213 107 405 317 489 534
33 85 35 98 36 206 l0 115 -114 300 c-62 165 -128 325 -147 355 -67 113 -232
246 -412 332 -99 47 -317 121 -421 143 -231 48 -410 20 -572 -92 -71 -49 -186
-171 -245 -259 -63 -95 -107 -187 -175 -368 -28 -72 -62 -151 -76 -175 -84
-144 -211 -211 -399 -211 -144 0 -272 40 -393 123 -125 85 -623 520 -821 717
-146 144 -185 202 -215 315 -20 79 -19 163 4 287 44 230 58 399 67 762 7 295
12 338 59 432 82 168 268 274 455 261 99 -7 156 -30 330 -132 213 -126 312
-159 665 -225 94 -18 239 -47 322 -66 292 -65 391 -47 687 128 316 186 513
315 571 373 99 99 155 238 155 380 -1 99 -13 145 -75 271 -69 141 -153 267
-351 525 -193 251 -276 376 -351 526 -120 242 -257 327 -523 326 -131 0 -213
-17 -431 -88 -169 -55 -224 -63 -309 -41 -124 32 -234 136 -316 301 -55 112
-81 227 -94 421 -15 222 11 317 113 411 134 124 335 151 682 93 98 -16 211
-30 251 -30 92 0 227 23 329 57 85 27 245 98 245 107 0 13 -38 4 -85 -21z"/>
<path d="M5422 7925 c-333 -174 -483 -275 -651 -438 -81 -79 -101 -115 -101
-180 0 -91 89 -165 283 -236 230 -85 328 -189 378 -406 57 -244 70 -290 108
-370 74 -159 204 -321 587 -736 114 -124 141 -179 156 -315 27 -250 -49 -478
-223 -668 -90 -99 -472 -371 -812 -580 -169 -103 -212 -119 -303 -114 -63 4
-82 11 -165 57 -209 115 -351 179 -474 210 -98 24 -588 112 -787 141 -166 23
-326 -61 -410 -217 -95 -174 -156 -719 -113 -1003 53 -354 303 -636 768 -866
214 -105 368 -128 508 -74 114 44 190 123 384 400 214 306 368 438 570 490
168 43 307 21 800 -125 230 -69 312 -85 427 -85 133 0 191 18 446 131 257 115
360 166 427 214 87 62 259 223 403 377 218 235 249 284 391 624 54 131 137
316 184 411 46 94 92 202 101 240 50 197 33 611 -34 799 -32 91 -65 138 -194
273 -218 227 -302 372 -351 609 -19 94 -19 289 0 408 8 50 33 149 56 220 71
224 65 329 -26 413 -60 55 -139 77 -355 96 -96 9 -215 23 -265 31 -198 33
-466 145 -677 282 -54 35 -103 62 -109 60 -13 -4 117 -93 228 -156 153 -86
354 -164 509 -197 38 -8 164 -24 279 -35 116 -12 234 -28 264 -36 122 -35 181
-108 181 -226 0 -49 -11 -103 -45 -214 -57 -186 -75 -295 -75 -451 0 -181 35
-327 115 -481 58 -113 121 -195 258 -339 135 -141 150 -162 182 -248 74 -196
92 -630 35 -820 -12 -39 -61 -151 -110 -250 -48 -99 -123 -265 -165 -370 -93
-229 -121 -286 -190 -391 -64 -96 -310 -362 -456 -492 -131 -118 -219 -176
-367 -243 -64 -28 -186 -83 -270 -121 -198 -89 -253 -102 -407 -95 -128 6
-145 10 -523 120 -437 129 -594 136 -797 39 -161 -78 -269 -186 -477 -479 -73
-103 -162 -217 -198 -254 -169 -173 -350 -182 -655 -33 -214 104 -447 275
-557 410 -180 221 -230 440 -198 874 12 163 24 242 57 379 33 138 65 204 133
272 65 66 124 96 207 107 72 10 62 11 466 -57 482 -81 572 -108 818 -247 160
-91 193 -104 270 -104 80 0 150 28 304 124 345 213 687 456 791 563 190 192
275 433 246 699 -16 145 -43 198 -164 329 -321 345 -508 574 -571 700 -37 74
-74 195 -102 335 -57 279 -150 385 -431 490 -102 38 -199 96 -224 135 -27 41
-26 109 3 160 12 21 65 77 117 123 155 137 359 266 649 414 82 41 125 68 110
68 -13 0 -88 -34 -167 -75z"/>
<path d="M6715 7984 c35 -27 158 -81 215 -95 85 -21 229 -16 350 12 86 20 132
24 260 24 152 0 158 -1 306 -42 260 -73 435 -149 479 -207 35 -47 38 -79 16
-170 -47 -195 -117 -388 -226 -616 -106 -222 -124 -311 -89 -445 35 -135 128
-251 291 -363 183 -124 229 -224 204 -438 -6 -55 -16 -234 -21 -399 -12 -413
-17 -435 -173 -755 -52 -107 -112 -242 -132 -300 -138 -389 -357 -727 -696
-1071 -96 -97 -142 -134 -294 -235 -190 -126 -235 -169 -256 -247 -19 -67 1
-129 114 -360 57 -116 127 -260 155 -318 59 -123 138 -229 220 -295 114 -92
283 -257 309 -302 39 -65 36 -122 -11 -242 -46 -118 -56 -201 -30 -255 39 -83
114 -132 308 -204 111 -40 184 -82 228 -128 70 -74 140 -229 187 -416 31 -122
59 -164 34 -50 -30 137 -94 311 -144 392 -73 118 -139 165 -321 229 -160 57
-233 105 -267 175 -30 63 -26 102 25 254 70 208 60 234 -164 435 -255 229
-309 296 -391 484 -21 49 -81 175 -134 280 -52 105 -98 210 -102 234 -17 103
37 180 201 285 175 111 241 164 374 301 329 338 517 630 670 1038 29 77 95
227 147 335 122 254 142 320 154 526 18 324 33 642 33 720 0 146 -64 242 -242
364 -181 124 -271 270 -272 441 0 82 23 156 94 303 117 243 186 429 236 640
25 103 17 148 -32 197 -62 63 -245 139 -498 208 -129 35 -142 37 -290 36 -119
0 -177 -5 -250 -21 -213 -47 -343 -37 -494 38 -80 40 -117 50 -81 23z"/>
<path d="M9040 7991 c0 -5 5 -13 10 -16 19 -12 48 -81 59 -140 24 -129 -17
-231 -164 -405 -169 -201 -260 -354 -320 -536 -78 -238 -32 -340 198 -442 134
-59 189 -97 217 -153 46 -90 12 -202 -116 -379 -173 -240 -231 -389 -254 -657
-31 -358 -96 -608 -237 -918 -76 -167 -113 -267 -253 -690 -135 -407 -140
-436 -101 -519 31 -63 69 -91 164 -122 72 -23 108 -27 292 -34 238 -10 306
-25 387 -85 60 -44 137 -148 219 -294 86 -154 163 -231 290 -294 106 -52 211
-82 344 -98 230 -28 467 37 770 214 243 141 314 195 393 297 33 43 93 170 134
283 97 272 197 413 444 623 167 142 211 162 289 124 51 -25 95 -80 148 -185
46 -93 74 -173 157 -448 129 -430 188 -563 302 -679 40 -41 94 -89 121 -107
26 -18 161 -87 300 -153 138 -67 275 -136 302 -153 81 -51 170 -140 228 -228
29 -45 80 -122 113 -172 60 -91 173 -212 339 -361 195 -176 322 -419 399 -764
33 -148 44 -227 52 -378 7 -121 24 -171 24 -69 0 181 -48 459 -115 662 -78
239 -176 401 -329 545 -267 251 -312 304 -457 535 -58 92 -168 202 -254 253
-39 22 -171 89 -295 148 -254 121 -310 154 -388 227 -128 121 -195 267 -326
707 -77 258 -107 345 -157 446 -73 146 -159 223 -236 211 -59 -10 -110 -43
-253 -167 -236 -204 -333 -343 -430 -615 -52 -148 -84 -212 -144 -292 -56 -75
-127 -129 -306 -236 -419 -250 -679 -305 -1005 -212 -217 61 -325 149 -445
358 -182 321 -276 377 -637 377 -165 0 -319 35 -371 83 -29 26 -57 80 -65 124
-8 40 8 97 133 473 143 428 164 486 240 655 145 319 202 537 236 890 29 305
75 432 238 660 125 174 151 231 151 326 0 67 -3 80 -29 117 -37 53 -91 89
-217 143 -173 74 -228 143 -216 277 16 189 135 417 346 667 111 132 157 211
171 297 12 75 -3 168 -38 232 -25 46 -52 71 -52 47z"/>
<path d="M9470 7995 c0 -2 32 -55 70 -116 80 -126 156 -225 203 -264 77 -64
253 -245 283 -292 59 -90 76 -147 82 -264 4 -91 1 -116 -17 -170 -30 -90 -62
-135 -199 -274 -101 -103 -126 -135 -161 -206 -44 -90 -71 -192 -71 -275 0
-84 -24 -146 -74 -192 -52 -48 -90 -68 -211 -112 -227 -82 -368 -197 -458
-375 -44 -87 -56 -130 -107 -375 -50 -244 -73 -325 -170 -625 -85 -262 -117
-391 -129 -530 -24 -258 56 -373 330 -469 248 -88 370 -222 499 -546 87 -218
136 -297 237 -381 133 -109 369 -162 543 -119 194 46 479 223 599 371 66 82
108 164 167 323 95 259 240 517 405 721 201 248 311 360 396 400 54 26 135 31
187 11 87 -33 192 -172 277 -366 110 -251 170 -488 204 -800 18 -159 29 -212
63 -300 85 -217 253 -360 534 -454 139 -46 217 -60 338 -60 163 0 227 20 435
135 66 36 208 111 316 166 297 151 344 190 589 488 81 99 183 220 226 269 171
191 238 299 269 427 51 220 -41 476 -260 719 -166 184 -261 363 -320 602 -49
197 -96 298 -258 553 -53 83 -120 188 -149 235 -84 134 -213 253 -361 335 -36
20 -126 62 -201 94 -75 33 -162 74 -193 93 -94 56 -188 152 -268 272 -109 164
-183 328 -280 620 -46 141 -102 291 -125 334 -53 102 -125 189 -213 256 -86
65 -231 146 -261 146 -12 0 19 -22 74 -51 195 -103 315 -221 397 -390 23 -46
67 -166 98 -267 93 -300 171 -475 298 -667 112 -167 234 -266 432 -349 161
-68 215 -95 298 -149 151 -98 236 -192 348 -382 29 -49 84 -137 122 -195 125
-189 171 -298 246 -575 47 -172 138 -339 266 -487 153 -176 223 -289 275 -438
30 -88 37 -214 16 -302 -31 -133 -83 -214 -301 -464 -67 -77 -170 -200 -230
-274 -188 -233 -264 -295 -505 -415 -74 -37 -220 -114 -325 -170 -237 -129
-299 -150 -455 -149 -63 0 -140 5 -170 13 -164 38 -344 112 -442 179 -81 56
-174 165 -216 254 -50 105 -68 175 -82 313 -46 458 -191 897 -365 1108 -74 90
-121 120 -195 125 -149 11 -252 -69 -524 -407 -212 -262 -313 -442 -440 -781
-61 -163 -112 -248 -205 -341 -89 -88 -187 -157 -327 -227 -146 -73 -229 -96
-344 -96 -174 1 -325 60 -435 170 -71 71 -106 134 -201 364 -78 188 -136 282
-228 368 -77 72 -159 119 -278 161 -118 41 -162 65 -219 118 -68 63 -91 129
-91 253 0 160 28 285 147 650 84 256 107 344 165 625 47 227 79 313 154 418
86 120 196 196 397 272 231 88 273 136 290 327 11 125 39 220 90 301 18 28 88
108 154 177 99 102 129 140 160 204 36 72 40 87 43 176 5 118 -9 188 -55 283
-31 62 -58 94 -208 242 -182 179 -239 247 -324 388 -29 48 -57 87 -62 87 -5 0
-9 -2 -9 -5z"/>
<path d="M9921 7970 c12 -16 61 -60 108 -97 245 -194 395 -379 437 -538 32
-119 7 -312 -71 -535 -24 -69 -67 -192 -95 -275 -43 -122 -53 -162 -53 -215 1
-86 24 -140 84 -194 93 -83 159 -90 552 -56 234 20 440 49 537 76 78 21 298
29 401 15 97 -14 242 -60 304 -97 63 -36 120 -95 152 -156 26 -50 28 -61 28
-178 0 -145 -10 -179 -124 -440 -84 -191 -116 -283 -131 -385 -25 -164 25
-362 212 -840 225 -574 262 -706 287 -1015 18 -219 83 -345 232 -456 151 -111
332 -148 527 -108 143 30 713 238 862 315 137 71 206 132 373 329 317 374 393
491 417 647 30 190 -58 368 -308 620 -162 165 -189 226 -223 511 -27 235 -55
340 -129 490 -90 182 -264 438 -369 543 -119 118 -183 153 -448 243 -334 113
-399 145 -505 244 -141 131 -261 389 -378 811 -27 97 -59 201 -72 232 -81 196
-232 353 -422 439 -90 41 -274 100 -310 100 -20 -1 22 -18 114 -49 390 -127
555 -297 655 -671 74 -277 142 -466 231 -640 87 -172 186 -277 334 -355 38
-19 173 -70 302 -114 128 -43 261 -92 294 -109 80 -40 177 -118 237 -190 81
-96 261 -373 321 -493 69 -141 98 -251 126 -481 35 -298 60 -355 225 -521 227
-229 307 -368 308 -537 2 -189 -61 -293 -449 -745 -206 -241 -267 -279 -705
-438 -442 -161 -499 -177 -633 -177 -166 0 -304 58 -426 180 -118 117 -148
197 -169 455 -20 239 -68 401 -264 905 -206 530 -252 708 -227 875 15 96 51
200 135 390 107 241 120 289 120 435 0 116 -2 129 -28 181 -56 115 -178 199
-356 247 -85 22 -116 25 -271 26 -148 1 -189 -2 -265 -21 -180 -44 -628 -93
-849 -93 -74 0 -100 4 -141 24 -97 45 -149 123 -148 221 1 67 24 148 107 373
31 84 71 206 88 270 28 104 32 132 32 252 0 118 -3 142 -23 193 -55 138 -184
291 -394 466 -74 61 -138 118 -141 126 -3 8 -12 15 -21 15 -13 0 -12 -5 6 -30z"/>
<path d="M13040 7991 c0 -16 92 -112 130 -136 115 -73 271 -72 495 1 91 30
306 137 284 142 -9 1 -53 -17 -100 -42 -96 -52 -262 -109 -363 -127 -180 -31
-331 23 -412 147 -16 24 -34 32 -34 15z"/>
<path d="M14130 7949 c-133 -81 -450 -241 -618 -313 -185 -79 -226 -102 -290
-166 -62 -61 -99 -135 -111 -220 -34 -253 157 -634 399 -795 36 -24 142 -81
237 -128 251 -124 348 -200 425 -335 73 -130 199 -335 272 -442 47 -68 117
-194 173 -310 161 -333 178 -361 302 -490 130 -136 221 -278 290 -453 110
-277 119 -524 26 -703 -45 -87 -92 -144 -248 -304 -174 -177 -235 -255 -365
-457 -59 -92 -147 -221 -194 -286 -111 -150 -131 -203 -125 -317 6 -124 60
-261 168 -425 303 -465 587 -583 1314 -546 264 14 375 6 459 -32 67 -31 122
-79 148 -131 32 -62 36 -188 9 -302 -52 -223 -74 -525 -51 -697 7 -54 17 -97
22 -97 5 0 6 25 1 63 -12 93 -8 400 6 502 7 50 24 139 37 199 26 116 31 227
13 290 -27 97 -104 169 -224 208 -67 22 -80 23 -290 18 -333 -7 -560 -4 -657
9 -298 40 -476 143 -669 387 -220 277 -312 531 -250 694 10 27 56 100 101 161
46 62 132 189 193 283 133 207 189 277 377 471 162 167 206 223 250 316 51
110 63 178 57 314 -8 168 -55 334 -147 518 -60 120 -119 202 -226 318 -128
137 -168 200 -268 416 -96 206 -139 283 -241 433 -40 58 -118 184 -175 280
-57 96 -121 197 -143 224 -66 79 -162 143 -346 233 -209 101 -265 136 -349
217 -85 81 -142 162 -202 287 -121 255 -124 443 -10 588 49 62 134 115 290
181 178 74 422 196 585 291 150 87 167 99 145 99 -8 0 -53 -23 -100 -51z"/>
<path d="M14982 7938 c110 -129 247 -257 378 -355 164 -122 311 -266 438 -430
209 -271 380 -340 917 -372 187 -11 250 -29 307 -88 47 -49 72 -101 93 -193
35 -157 29 -349 -16 -497 -12 -37 -52 -136 -89 -219 -84 -186 -108 -256 -122
-361 -20 -141 13 -283 101 -442 71 -130 358 -498 485 -623 146 -145 301 -222
514 -253 147 -22 186 -41 280 -139 138 -144 210 -299 220 -472 6 -112 -12
-173 -69 -237 -57 -66 -131 -110 -249 -151 -260 -91 -367 -180 -515 -427 -76
-127 -205 -306 -350 -484 -85 -103 -162 -257 -177 -349 -31 -191 63 -371 243
-461 99 -50 161 -71 302 -101 285 -60 548 -189 802 -392 39 -31 180 -164 315
-297 321 -315 399 -389 406 -382 6 6 -540 548 -641 637 -128 111 -314 240
-440 303 -132 66 -307 125 -464 156 -306 62 -467 191 -503 403 -27 157 50 336
238 553 83 96 213 280 289 409 137 233 265 336 523 421 134 44 235 123 288
225 45 88 24 289 -46 439 -58 123 -187 274 -274 320 -39 20 -61 26 -231 56
-237 43 -369 133 -603 415 -253 303 -353 458 -404 620 -19 61 -23 96 -22 185
1 132 21 202 118 413 86 187 116 283 129 420 16 169 -15 373 -70 462 -72 115
-142 139 -468 159 -256 16 -395 46 -536 117 -99 49 -168 112 -272 246 -86 111
-234 267 -327 345 -19 17 -79 62 -132 101 -116 85 -205 168 -313 291 -44 50
-86 91 -93 91 -8 0 10 -28 40 -62z"/>
<path d="M15210 7990 c0 -5 28 -47 63 -92 42 -56 105 -117 188 -187 191 -159
324 -282 439 -407 159 -173 264 -243 424 -284 242 -61 480 21 573 197 77 144
123 334 123 502 0 83 -24 268 -36 280 -14 14 -14 -19 0 -96 61 -332 -57 -720
-251 -826 -144 -78 -371 -74 -535 9 -98 49 -142 86 -343 290 -110 111 -264
254 -342 318 -146 120 -196 171 -254 256 -33 47 -49 61 -49 40z"/>
<path d="M15440 7991 c0 -11 64 -93 111 -142 19 -19 104 -94 189 -166 85 -72
206 -175 267 -230 124 -109 191 -153 276 -183 110 -39 206 -22 277 50 73 72
83 116 88 365 3 203 -2 315 -16 315 -4 0 -5 -105 -3 -232 3 -242 -4 -308 -39
-378 -39 -76 -113 -120 -199 -120 -113 0 -204 52 -422 242 -90 79 -221 192
-291 251 -74 62 -147 135 -175 172 -45 61 -63 77 -63 56z"/>
<path d="M15750 7992 c0 -15 85 -90 142 -126 75 -47 164 -86 214 -93 74 -10
135 41 173 142 22 59 26 85 13 85 -5 0 -16 -28 -26 -62 -13 -47 -27 -72 -62
-106 -42 -43 -46 -44 -90 -39 -69 7 -223 88 -293 152 -58 54 -71 63 -71 47z"/>
<path d="M17900 7892 c-203 -150 -238 -179 -286 -245 -62 -83 -81 -145 -104
-334 -12 -93 -35 -224 -51 -293 -70 -292 -99 -489 -99 -685 0 -223 -23 -323
-140 -619 -101 -257 -111 -292 -111 -406 -1 -196 73 -338 325 -621 110 -122
185 -181 284 -221 54 -22 69 -23 297 -23 263 0 286 -4 363 -59 24 -17 59 -52
78 -78 36 -48 124 -221 184 -358 18 -41 59 -127 90 -190 32 -63 73 -156 91
-205 30 -84 33 -99 33 -220 1 -122 -1 -133 -26 -185 -29 -59 -135 -172 -227
-241 -75 -56 -198 -113 -311 -144 -214 -60 -267 -91 -393 -226 -131 -141 -229
-279 -304 -427 -67 -132 -68 -133 -68 -215 0 -72 3 -88 27 -129 52 -88 137
-142 404 -258 158 -69 210 -100 319 -193 119 -102 370 -352 523 -522 186 -208
396 -419 401 -404 2 7 -18 31 -44 53 -27 23 -153 156 -281 296 -358 393 -610
633 -742 707 -36 20 -126 63 -201 95 -196 86 -249 116 -312 178 -63 63 -85
120 -76 198 18 152 184 419 392 629 84 86 113 108 175 136 41 19 100 40 130
47 204 46 369 139 513 288 94 98 120 158 125 288 6 142 -17 223 -127 453 -48
102 -112 238 -140 302 -102 227 -181 333 -288 381 -45 21 -64 22 -298 22
l-250 1 -65 28 c-90 38 -162 97 -282 232 -243 275 -319 438 -298 636 10 94 15
111 128 399 47 121 87 240 97 290 9 47 20 177 25 290 13 285 21 345 90 640 21
91 46 226 55 300 20 175 31 222 68 295 41 82 122 159 315 298 89 65 162 120
162 123 0 16 -43 -10 -170 -104z"/>
<path d="M18148 7832 c-92 -92 -183 -188 -202 -213 -54 -71 -102 -167 -125
-244 -11 -38 -41 -144 -66 -234 -25 -91 -75 -253 -110 -360 -76 -235 -76 -234
-115 -534 -34 -260 -61 -379 -143 -622 -92 -271 -95 -356 -18 -521 72 -153
169 -257 308 -331 120 -64 200 -82 408 -93 271 -14 374 -49 495 -169 76 -75
95 -107 169 -281 107 -253 216 -427 354 -565 50 -50 92 -85 94 -78 3 7 -13 27
-34 45 -148 128 -273 322 -409 637 -86 199 -161 289 -296 357 -95 48 -177 64
-373 75 -199 10 -270 25 -382 80 -149 74 -275 216 -337 381 -52 139 -47 196
49 488 85 257 99 323 136 601 36 284 43 313 124 559 35 107 89 287 120 400 85
311 121 369 363 605 144 140 184 185 165 185 -4 0 -83 -75 -175 -168z"/>
<path d="M18558 7938 c-112 -85 -321 -295 -386 -391 -78 -114 -125 -223 -172
-397 -49 -185 -97 -325 -178 -520 -74 -178 -81 -205 -187 -720 -91 -443 -100
-527 -71 -635 43 -164 165 -286 352 -354 43 -16 162 -46 264 -66 207 -41 273
-61 369 -110 147 -74 235 -171 356 -392 102 -185 174 -291 235 -346 73 -66 76
-43 3 26 -60 57 -111 134 -228 342 -85 152 -159 249 -232 307 -130 101 -213
133 -476 187 -105 22 -221 49 -257 60 -189 60 -324 188 -366 346 -29 107 -20
190 72 639 100 487 112 535 201 750 83 204 104 266 154 451 52 197 88 285 162
397 70 108 276 319 402 412 103 77 102 76 83 76 -9 0 -54 -28 -100 -62z"/>
<path d="M10790 7959 c-142 -23 -158 -109 -65 -358 75 -199 89 -262 89 -386 0
-107 -1 -113 -53 -260 -29 -82 -59 -175 -67 -205 -27 -110 -13 -184 50 -247
70 -69 100 -74 488 -74 183 0 410 0 503 -1 237 -2 406 34 507 109 93 68 153
247 164 488 7 147 -9 266 -52 397 -87 265 -342 430 -774 502 -216 36 -662 56
-790 35z m498 -24 c450 -33 726 -122 904 -293 81 -78 129 -165 165 -300 24
-86 27 -115 27 -267 0 -140 -4 -187 -22 -264 -40 -171 -85 -243 -185 -290
-132 -61 -302 -85 -540 -75 -89 4 -301 8 -472 8 -300 1 -311 2 -351 23 -83 45
-121 117 -110 212 3 31 34 137 68 236 61 178 62 181 62 290 0 123 -15 191 -85
378 -49 130 -71 232 -61 272 11 39 52 68 110 76 85 12 278 9 490 -6z"/>
<path d="M11285 7757 c-131 -34 -194 -105 -202 -227 -8 -115 64 -577 103 -657
57 -119 218 -199 424 -210 195 -11 310 26 418 134 136 134 200 366 154 551
-26 100 -59 158 -131 229 -68 66 -198 133 -321 164 -107 27 -367 36 -445 16z
m375 -23 c350 -66 538 -266 516 -547 -16 -199 -124 -384 -265 -456 -92 -48
-262 -65 -389 -41 -148 28 -279 107 -321 193 -29 61 -101 505 -101 627 0 112
65 193 180 224 75 20 276 20 380 0z"/>
<path d="M11565 7506 c-52 -20 -101 -73 -116 -128 -23 -84 28 -257 98 -330 62
-65 159 -77 234 -30 136 87 186 232 119 349 -16 28 -45 63 -63 77 -83 63 -197
89 -272 62z m187 -34 c180 -79 210 -266 64 -400 -54 -49 -82 -62 -138 -62 -70
0 -121 38 -163 123 -45 92 -63 181 -47 235 35 118 155 161 284 104z"/>
<path d="M14475 7936 c-83 -19 -137 -42 -333 -140 -316 -158 -534 -276 -624
-338 -149 -102 -208 -201 -208 -347 0 -249 136 -467 388 -621 29 -18 122 -63
206 -99 266 -117 334 -183 441 -422 62 -137 76 -162 225 -379 117 -171 196
-293 264 -412 35 -62 124 -158 211 -227 209 -166 269 -279 354 -656 86 -390
81 -590 -21 -775 -21 -38 -96 -120 -248 -270 -278 -275 -343 -369 -452 -659
-55 -147 -78 -250 -78 -355 0 -306 222 -640 521 -780 112 -53 178 -68 329 -73
126 -5 154 -2 410 41 519 87 612 106 676 135 102 48 219 176 304 336 79 147
167 261 403 521 106 116 156 186 308 427 110 176 218 316 339 438 59 60 116
126 126 147 10 21 20 68 22 109 3 60 0 80 -21 126 -36 79 -81 124 -277 276
-229 178 -307 254 -514 501 -339 404 -479 612 -537 800 -19 59 -24 96 -23 175
1 115 18 173 110 382 110 251 119 282 119 423 0 107 -4 132 -22 173 -29 63
-104 135 -175 170 -73 35 -242 78 -438 111 -361 62 -434 113 -624 439 -105
180 -134 207 -465 447 -106 78 -229 172 -274 211 -180 155 -284 196 -422 165z
m212 -41 c60 -27 100 -55 193 -135 77 -66 171 -138 375 -285 222 -159 281
-223 399 -430 153 -266 244 -325 601 -390 407 -73 515 -120 591 -257 28 -51
29 -58 29 -178 0 -142 -4 -156 -103 -381 -33 -74 -75 -177 -93 -229 -29 -84
-33 -107 -33 -200 0 -72 6 -124 18 -165 56 -187 208 -414 552 -825 204 -244
274 -312 501 -488 259 -201 302 -256 303 -383 0 -85 -33 -153 -105 -215 -120
-104 -264 -291 -439 -571 -104 -167 -169 -251 -324 -418 -149 -161 -272 -325
-332 -445 -74 -147 -211 -294 -308 -330 -57 -22 -225 -54 -647 -125 -315 -53
-444 -58 -581 -25 -302 72 -546 315 -639 634 -47 165 -31 315 58 547 108 279
163 357 442 634 237 236 268 276 312 420 24 82 25 330 0 465 -30 165 -107 460
-137 526 -55 121 -155 243 -265 322 -100 72 -163 148 -263 317 -38 66 -129
206 -202 310 -100 145 -152 234 -222 375 -85 173 -96 190 -167 261 -80 80 -80
80 -386 224 -321 151 -494 390 -483 669 7 207 85 276 608 547 514 267 598 292
747 224z"/>
<path d="M14381 7689 c-125 -22 -373 -121 -569 -227 -183 -99 -268 -183 -307
-301 -57 -173 32 -383 219 -515 99 -70 164 -99 431 -193 122 -42 197 -87 258
-151 58 -63 90 -128 116 -233 40 -164 136 -320 381 -620 67 -81 135 -160 152
-174 84 -71 225 -113 315 -95 132 28 183 155 170 421 -3 66 -2 131 3 144 22
57 81 60 253 13 114 -30 133 -33 282 -33 182 0 181 0 282 87 74 63 125 128
161 206 36 77 38 195 5 258 -45 84 -145 144 -263 159 -30 3 -163 7 -295 9
-228 2 -242 3 -288 25 -86 42 -119 104 -177 331 -85 336 -150 441 -355 572
-135 87 -501 286 -553 301 -71 22 -156 28 -221 16z m215 -34 c47 -14 376 -193
539 -293 196 -121 271 -238 349 -543 52 -202 79 -270 127 -318 69 -70 94 -75
377 -78 139 -1 277 -7 307 -12 98 -18 186 -76 222 -145 24 -47 28 -137 8 -198
-38 -117 -153 -251 -263 -305 -51 -25 -56 -25 -200 -20 -124 4 -164 10 -257
36 -64 18 -134 31 -168 31 -50 0 -61 -4 -82 -26 -29 -31 -40 -79 -30 -131 19
-103 -7 -333 -43 -382 -66 -89 -186 -99 -330 -29 -71 35 -116 81 -273 278
-218 273 -290 395 -329 550 -31 122 -73 201 -140 263 -74 69 -125 95 -311 161
-86 31 -187 69 -224 86 -197 88 -342 255 -363 419 -26 192 72 324 345 464 218
111 427 192 548 210 44 7 138 -2 191 -18z"/>
<path d="M14153 7410 c-212 -55 -387 -173 -434 -290 -36 -91 3 -225 91 -310
89 -87 201 -132 455 -185 88 -19 198 -43 245 -53 143 -34 234 -45 328 -40 76
3 100 9 155 36 123 61 185 163 194 322 9 148 -37 231 -177 323 -272 178 -622
259 -857 197z m378 -20 c163 -33 321 -99 470 -195 134 -86 174 -161 166 -306
-3 -64 -11 -101 -30 -141 -89 -197 -265 -241 -627 -156 -47 10 -157 35 -245
53 -322 68 -437 130 -507 273 -60 121 -38 217 69 312 60 53 226 135 323 160
102 26 252 26 381 0z"/>
<path d="M16075 5155 c-152 -27 -327 -94 -391 -148 -53 -45 -92 -133 -110
-249 -19 -125 -14 -411 12 -613 9 -71 17 -206 18 -300 1 -160 -1 -175 -26
-255 -51 -156 -114 -238 -319 -411 -285 -240 -403 -433 -444 -724 -16 -117 -7
-311 20 -415 57 -223 230 -414 439 -484 125 -42 370 -38 531 9 157 45 374 127
469 176 180 92 249 151 477 404 84 94 222 240 305 325 217 222 281 311 501
695 121 210 147 282 141 388 -6 127 -79 240 -310 482 -94 99 -385 429 -653
741 -253 293 -332 359 -464 384 -67 13 -107 12 -196 -5z m197 -16 c124 -27
205 -94 437 -364 227 -265 566 -648 675 -765 224 -238 287 -336 294 -456 7
-125 -14 -174 -251 -572 -123 -206 -205 -312 -377 -489 -80 -81 -227 -238
-327 -348 -100 -110 -201 -216 -225 -236 -127 -105 -285 -187 -508 -264 -232
-80 -308 -95 -477 -97 -136 -1 -154 1 -226 25 -204 71 -360 235 -427 452 -28
93 -43 299 -29 408 15 119 45 220 95 322 73 150 162 256 334 398 224 185 306
296 351 477 19 76 17 338 -5 520 -25 207 -32 455 -16 576 27 220 83 287 302
360 176 58 283 73 380 53z"/>
<path d="M16052 4790 c-72 -26 -111 -52 -165 -109 -114 -122 -152 -288 -134
-590 4 -80 6 -222 4 -316 -5 -197 -25 -288 -84 -394 -45 -82 -160 -197 -273
-276 -292 -203 -432 -463 -417 -775 17 -337 177 -579 417 -631 29 -6 102 -9
164 -7 95 4 126 9 221 41 61 21 169 67 240 102 240 118 376 220 652 488 87 84
208 199 268 254 200 182 313 330 429 561 70 140 101 229 111 319 14 125 -36
268 -140 398 -84 105 -271 301 -398 416 -62 57 -187 175 -278 264 -185 181
-245 227 -338 255 -83 26 -206 26 -279 0z m334 -45 c68 -33 103 -62 260 -214
100 -97 261 -252 358 -344 366 -351 462 -494 460 -692 -1 -111 -29 -200 -115
-365 -98 -187 -181 -302 -314 -435 -178 -178 -581 -558 -652 -614 -152 -120
-376 -245 -563 -314 -140 -51 -192 -60 -323 -55 -111 4 -120 6 -192 43 -180
91 -289 301 -302 581 -15 302 116 544 402 747 294 209 376 375 374 756 0 86
-4 210 -8 276 -23 379 71 584 304 662 25 8 76 12 136 10 89 -2 102 -6 175 -42z"/>
<path d="M16160 4443 c-48 -16 -81 -37 -109 -68 -83 -95 -105 -205 -121 -620
-7 -187 -13 -257 -29 -318 -45 -173 -129 -276 -339 -418 -176 -119 -285 -226
-335 -330 -45 -90 -57 -151 -57 -281 0 -273 136 -474 345 -508 113 -18 247 16
440 112 172 87 283 167 620 453 105 88 224 189 266 222 246 199 426 480 459
715 14 99 -1 184 -51 287 -57 116 -184 242 -374 372 -77 53 -221 151 -320 219
-99 68 -205 134 -235 147 -51 21 -124 29 -160 16z m147 -31 c27 -10 113 -63
193 -119 80 -55 224 -153 320 -219 344 -234 463 -391 462 -609 0 -105 -23
-187 -84 -310 -101 -199 -197 -309 -458 -525 -69 -57 -195 -163 -280 -235
-257 -217 -367 -294 -545 -380 -153 -74 -231 -97 -337 -97 -78 -1 -93 2 -151
30 -107 53 -185 158 -221 299 -18 69 -21 233 -6 313 28 149 142 286 359 432
161 109 227 168 281 254 82 130 105 247 114 575 9 317 35 449 103 528 66 77
154 100 250 63z"/>
<path d="M16346 3796 c-91 -34 -120 -92 -172 -347 -53 -260 -97 -360 -199
-460 -65 -63 -101 -86 -213 -139 -157 -74 -263 -165 -309 -267 -53 -114 -11
-272 87 -336 44 -28 48 -28 150 -24 173 7 211 27 560 289 100 76 268 195 374
265 207 138 299 220 358 318 189 311 91 581 -247 680 -113 34 -325 45 -389 21z
m374 -36 c314 -91 415 -311 274 -599 -66 -135 -146 -211 -394 -376 -107 -72
-296 -206 -420 -298 -123 -93 -245 -179 -270 -192 -76 -38 -148 -55 -240 -55
-80 0 -90 2 -127 29 -82 59 -118 207 -75 304 44 98 160 193 347 282 84 40 112
60 175 124 107 108 158 219 195 426 47 259 88 349 171 375 52 17 281 4 364
-20z"/>
<path d="M19070 7914 c-212 -49 -334 -105 -478 -220 -197 -159 -309 -364 -356
-654 -31 -185 -111 -388 -214 -541 -102 -150 -181 -360 -236 -624 -67 -322
-50 -501 61 -647 79 -103 188 -165 399 -229 77 -22 191 -57 254 -76 245 -74
396 -189 568 -430 76 -107 132 -167 132 -142 0 9 -12 26 -26 40 -14 13 -58 69
-97 124 -131 185 -285 317 -447 384 -41 17 -169 58 -285 91 -115 34 -238 74
-272 89 -154 73 -253 184 -294 331 -17 64 -14 238 6 355 55 317 136 543 265
741 103 158 172 337 204 529 57 342 206 569 480 733 98 59 246 111 409 142 31
6 57 16 57 21 0 12 -10 11 -130 -17z"/>
<path d="M0 7912 c0 -5 37 -17 82 -26 206 -44 238 -112 152 -314 -25 -59 -75
-179 -111 -267 -36 -88 -79 -186 -96 -218 -16 -31 -27 -60 -24 -63 10 -11 57
75 103 189 25 62 79 191 120 288 81 194 91 246 56 304 -25 40 -103 81 -191
100 -84 17 -91 18 -91 7z"/>
<path d="M5865 7866 c-91 -21 -175 -58 -270 -120 -250 -163 -278 -280 -146
-595 60 -141 91 -315 91 -506 0 -109 24 -244 60 -338 58 -153 203 -318 530
-604 102 -89 198 -178 213 -197 68 -87 103 -200 91 -291 -17 -129 -173 -588
-235 -690 -72 -120 -222 -247 -584 -493 -216 -147 -306 -220 -380 -310 -166
-200 -165 -350 1 -435 48 -25 253 -94 438 -148 309 -90 492 -113 672 -85 117
18 357 75 471 112 116 38 289 126 364 186 102 82 293 263 382 363 148 167 211
277 276 480 71 219 142 425 182 526 54 138 69 204 69 310 0 162 -38 338 -100
459 -13 25 -72 119 -132 208 -120 181 -148 232 -214 392 -89 220 -150 475
-185 787 -11 105 -30 214 -41 247 -60 181 -201 290 -574 441 -120 49 -307 129
-414 177 -107 49 -222 98 -255 109 -79 26 -230 33 -310 15z m320 -39 c39 -13
93 -35 120 -49 84 -43 299 -136 540 -235 332 -136 467 -231 535 -374 29 -63
41 -119 60 -299 35 -335 123 -667 241 -917 22 -46 89 -158 149 -248 115 -172
166 -266 193 -350 45 -139 60 -366 32 -475 -8 -32 -35 -109 -60 -170 -25 -62
-77 -212 -116 -334 -39 -121 -82 -250 -96 -286 -40 -99 -110 -213 -196 -316
-92 -110 -332 -341 -436 -420 -135 -101 -316 -174 -601 -239 -272 -63 -383
-67 -602 -25 -215 41 -659 184 -740 237 -125 83 -99 234 72 417 70 75 169 152
380 296 363 247 500 368 572 506 66 126 206 547 222 669 15 109 -31 232 -121
327 -32 33 -143 136 -248 228 -202 178 -280 256 -359 360 -109 145 -166 320
-166 516 0 197 -42 411 -110 561 -85 187 -81 306 14 411 80 88 274 199 397
227 91 21 234 13 324 -18z"/>
<path d="M5984 7597 c-108 -28 -194 -102 -227 -194 -33 -95 -38 -182 -35 -590
l3 -398 33 -79 c74 -180 197 -311 504 -539 226 -167 330 -262 392 -356 95
-145 92 -191 -38 -483 -31 -71 -74 -185 -97 -255 -74 -232 -96 -278 -181 -390
-35 -45 -253 -233 -548 -470 -93 -75 -180 -168 -203 -216 -26 -54 -22 -107 12
-154 57 -79 143 -126 308 -170 88 -23 115 -26 268 -25 531 2 840 116 1120 414
155 164 259 314 306 437 59 157 130 598 131 811 0 196 -18 290 -108 555 -142
415 -223 693 -314 1070 -90 375 -111 439 -190 559 -123 188 -254 272 -635 403
-201 69 -397 96 -501 70z m242 -22 c113 -20 210 -49 409 -124 292 -110 415
-214 521 -436 47 -99 64 -157 125 -415 83 -356 197 -748 306 -1056 142 -403
156 -557 88 -982 -59 -372 -93 -474 -222 -654 -79 -111 -310 -343 -400 -402
-127 -83 -306 -149 -491 -181 -135 -24 -437 -38 -530 -25 -263 36 -442 141
-442 260 0 78 66 148 408 428 144 118 294 248 332 289 82 88 135 187 181 336
43 142 70 217 119 327 114 258 128 323 90 423 -27 73 -117 186 -210 266 -39
34 -158 126 -263 205 -316 236 -425 361 -486 560 -20 64 -21 89 -21 455 1 501
12 566 110 655 88 80 201 101 376 71z"/>
<path d="M6285 7322 c-179 -16 -279 -123 -333 -357 -102 -442 -48 -677 202
-883 155 -129 554 -380 702 -442 160 -68 270 -48 329 60 30 55 30 55 30 220
-1 154 -3 173 -33 285 -48 176 -218 678 -254 748 -84 167 -214 276 -398 336
-66 21 -191 38 -245 33z m254 -58 c95 -31 206 -100 268 -167 71 -77 119 -173
196 -397 94 -269 128 -381 168 -544 28 -118 31 -141 27 -260 -3 -116 -6 -137
-28 -180 -38 -75 -66 -91 -159 -91 -73 0 -83 3 -192 56 -209 102 -553 326
-694 452 -136 122 -205 280 -205 471 0 72 24 240 52 361 47 207 141 315 293
334 73 9 178 -4 274 -35z"/>
<path d="M6350 6975 c-116 -36 -204 -171 -230 -352 -20 -148 24 -274 136 -387
109 -110 229 -182 387 -231 130 -41 194 -28 251 49 17 23 21 41 20 104 -1 42
-9 106 -19 142 -20 76 -103 285 -153 385 -114 230 -254 333 -392 290z m166
-40 c91 -53 170 -165 255 -362 122 -281 154 -435 106 -515 -17 -28 -80 -58
-121 -58 -86 0 -284 85 -399 171 -77 58 -162 154 -188 214 -70 159 -27 387 96
511 77 78 162 91 251 39z"/>
<path d="M7109 4946 c-66 -23 -129 -80 -206 -186 -53 -71 -83 -133 -122 -250
-71 -208 -148 -330 -311 -490 -140 -137 -191 -210 -198 -278 -4 -44 -1 -52 28
-85 45 -51 115 -71 250 -71 200 0 329 64 538 268 133 129 205 242 254 396 21
69 23 92 23 285 0 196 -2 214 -23 268 -30 72 -65 115 -117 138 -47 22 -67 23
-116 5z m98 -17 c45 -17 91 -69 115 -128 18 -47 22 -83 26 -220 5 -188 -6
-280 -49 -391 -58 -152 -186 -309 -357 -438 -109 -84 -186 -121 -291 -140
-150 -27 -320 8 -349 73 -33 71 7 146 157 295 192 190 265 303 339 521 51 150
107 244 201 339 91 91 143 114 208 89z"/>
<path d="M19070 7699 c-250 -65 -428 -238 -491 -476 -18 -67 -21 -111 -23
-318 -2 -228 -3 -242 -25 -287 -32 -68 -97 -136 -214 -226 -208 -161 -313
-316 -372 -547 -79 -316 20 -559 280 -681 177 -83 650 -193 738 -171 45 12 86
55 102 110 19 64 19 135 0 268 -22 161 -38 443 -32 563 7 139 35 203 112 254
61 41 72 61 19 34 -55 -29 -110 -89 -129 -141 -33 -94 -28 -432 11 -710 26
-191 16 -271 -41 -328 -40 -40 -71 -42 -236 -12 -219 39 -451 105 -561 160
-77 39 -177 134 -212 202 -75 150 -76 326 -3 542 62 181 159 307 347 450 118
89 174 150 208 223 26 56 26 61 28 292 1 271 11 328 75 450 52 100 131 188
222 244 78 49 192 91 275 102 28 3 52 10 52 15 0 14 -49 10 -130 -12z"/>
<path d="M2864 7561 c-95 -26 -193 -71 -268 -125 -111 -79 -195 -181 -384
-463 -194 -289 -258 -365 -347 -407 -83 -39 -149 -44 -236 -16 -89 29 -158 74
-251 165 -94 93 -160 183 -248 340 -89 161 -130 216 -191 265 -144 114 -345
91 -461 -51 -20 -24 -72 -116 -116 -204 -106 -209 -169 -285 -347 -409 -11 -8
-17 -18 -13 -22 22 -21 237 175 296 270 21 33 68 122 104 197 56 114 75 143
122 186 138 126 325 112 455 -33 27 -31 74 -102 104 -158 100 -184 166 -276
277 -386 78 -79 123 -115 175 -142 174 -89 304 -72 443 57 47 43 110 128 244
329 155 232 196 286 283 372 90 91 112 107 206 153 181 88 305 102 409 45 92
-50 144 -139 191 -326 87 -350 226 -633 393 -803 86 -88 132 -110 226 -109 81
1 69 -4 310 111 203 97 243 108 395 108 120 0 134 -2 187 -27 88 -41 129 -80
243 -229 58 -75 154 -196 214 -269 225 -270 335 -480 371 -706 19 -119 -18
-233 -102 -310 -49 -45 -409 -274 -513 -327 -171 -86 -343 -127 -530 -127
-293 0 -527 84 -765 275 -301 241 -472 271 -1090 189 -230 -31 -271 -45 -339
-120 -61 -66 -71 -105 -71 -266 0 -158 12 -202 101 -380 40 -79 83 -172 96
-207 88 -235 67 -468 -72 -766 -62 -134 -77 -184 -78 -267 -1 -70 3 -84 38
-155 41 -84 145 -197 255 -279 30 -23 117 -87 194 -144 212 -157 349 -304 439
-470 48 -88 70 -145 118 -313 23 -78 52 -163 65 -189 40 -79 117 -143 194
-161 72 -17 312 -38 435 -38 162 0 277 17 397 61 227 83 393 247 424 420 4 25
8 155 9 290 0 225 2 250 23 311 53 157 192 310 342 375 66 28 322 26 432 -4
344 -94 579 -366 668 -772 18 -81 25 -383 11 -452 -21 -98 -66 -175 -156 -265
-67 -66 -99 -90 -176 -127 -182 -88 -197 -90 -729 -91 -422 -1 -470 -2 -520
-19 -128 -43 -186 -86 -313 -235 -196 -228 -291 -360 -355 -486 -39 -79 -87
-214 -78 -223 10 -10 24 10 30 42 10 51 61 172 105 246 51 86 150 217 276 365
156 183 205 223 325 267 65 23 68 23 525 23 504 0 521 2 679 63 206 80 368
256 407 439 18 87 6 384 -20 496 -73 317 -263 569 -522 692 -130 61 -212 78
-394 79 -154 1 -162 0 -218 -26 -152 -72 -284 -221 -340 -388 -20 -60 -21 -86
-22 -320 -1 -173 -6 -269 -14 -300 -23 -81 -63 -144 -135 -215 -56 -55 -93
-81 -176 -123 -216 -107 -424 -129 -806 -82 -129 15 -180 35 -234 89 -52 52
-70 93 -130 296 -59 202 -113 314 -211 441 -68 89 -239 246 -374 344 -319 231
-417 338 -444 482 -17 92 0 163 77 328 82 176 122 332 122 474 0 154 -36 275
-149 499 -94 186 -104 229 -100 408 4 124 6 137 31 180 31 53 80 94 139 114
101 36 640 92 773 80 167 -14 328 -75 451 -170 175 -135 223 -168 306 -210
275 -137 616 -164 903 -70 123 40 224 93 456 239 240 151 295 200 330 293 72
193 -53 554 -292 839 -69 82 -228 281 -300 374 -148 191 -233 239 -429 240
-122 0 -209 -25 -415 -123 -240 -114 -274 -123 -369 -90 -63 21 -171 127 -247
243 -115 174 -195 365 -262 624 -19 72 -45 157 -59 188 -32 71 -108 155 -165
180 -63 29 -163 32 -248 9z"/>
<path d="M3935 7522 c-53 -26 -98 -72 -126 -130 -35 -70 -34 -187 2 -262 35
-74 70 -114 125 -140 38 -19 58 -22 124 -18 124 7 215 61 304 179 74 98 62
153 -57 265 -91 86 -157 117 -257 122 -58 2 -84 -2 -115 -16z m245 -36 c59
-30 172 -133 196 -178 8 -15 14 -40 14 -56 0 -61 -114 -188 -210 -234 -31 -14
-70 -22 -125 -25 -70 -3 -85 -1 -120 19 -110 64 -163 224 -116 348 45 118 111
163 231 158 59 -2 87 -9 130 -32z"/>
<path d="M19140 7309 c-54 -32 -80 -59 -108 -114 -25 -46 -27 -59 -27 -170 1
-112 3 -126 34 -205 27 -68 44 -96 87 -137 51 -50 74 -64 74 -44 0 4 -17 20
-38 34 -45 30 -102 130 -126 223 -23 88 -21 200 4 268 23 59 81 120 131 138
16 5 29 14 29 19 0 15 -23 10 -60 -12z"/>
<path d="M2765 7246 c-66 -21 -106 -46 -168 -105 -87 -82 -148 -178 -278 -441
-168 -336 -282 -516 -422 -666 -77 -83 -116 -101 -180 -83 -40 11 -170 109
-206 155 -44 58 -198 209 -276 272 -112 90 -350 247 -413 271 -126 50 -207 36
-410 -67 -121 -62 -411 -259 -412 -280 0 -7 28 7 62 31 211 149 264 184 368
237 255 129 323 121 606 -71 163 -111 323 -247 419 -356 118 -133 197 -196
266 -213 72 -18 118 7 212 114 143 164 264 358 410 658 150 311 237 428 367
497 72 38 171 52 232 32 89 -29 161 -130 218 -306 49 -150 97 -268 252 -619
123 -278 147 -324 187 -365 86 -88 190 -112 309 -72 80 27 104 42 281 179 377
290 508 272 847 -120 170 -197 236 -310 249 -425 15 -133 -66 -267 -240 -396
-188 -139 -375 -193 -546 -156 -52 11 -686 230 -889 306 -218 83 -311 97 -585
88 -324 -10 -441 11 -747 135 -257 103 -328 112 -394 46 -45 -45 -49 -89 -35
-376 7 -135 17 -402 21 -595 7 -310 10 -359 29 -430 24 -88 79 -212 117 -262
14 -18 39 -63 57 -101 29 -61 32 -75 31 -162 -1 -86 -5 -106 -47 -221 -56
-155 -77 -253 -77 -361 0 -107 22 -205 64 -293 72 -151 175 -255 371 -372 207
-125 270 -170 336 -236 188 -190 207 -430 52 -673 -140 -220 -172 -279 -198
-359 -50 -153 -22 -253 112 -395 144 -154 322 -280 453 -324 77 -25 96 -27
290 -31 234 -4 256 -9 284 -70 20 -41 46 -155 46 -202 0 -36 9 -63 20 -63 17
0 -21 220 -46 273 -28 59 -55 70 -188 79 -67 5 -146 6 -177 3 -194 -20 -396
81 -640 320 -213 208 -211 338 8 674 130 199 157 269 157 411 1 151 -48 262
-166 378 -74 73 -74 73 -278 197 -244 149 -340 239 -416 390 -90 182 -85 385
16 665 73 204 64 315 -41 474 -61 93 -94 166 -121 266 -18 65 -21 122 -28 425
-4 193 -14 460 -21 595 -14 276 -10 326 28 364 56 56 130 46 364 -50 310 -126
435 -149 769 -139 275 8 341 -2 595 -95 349 -127 772 -273 845 -291 130 -33
267 -19 405 41 129 55 320 213 377 311 102 174 67 321 -137 574 -163 203 -311
339 -410 377 -152 58 -268 18 -540 -187 -212 -160 -252 -180 -361 -180 -72 0
-85 3 -130 30 -73 46 -107 99 -216 346 -168 378 -213 488 -273 658 -77 224
-124 292 -228 336 -43 18 -136 19 -192 1z"/>
<path d="M2745 6781 c-22 -10 -52 -31 -67 -47 -64 -69 -279 -455 -317 -571
-74 -222 45 -407 307 -474 324 -83 558 136 492 462 -29 140 -136 383 -246 556
-53 83 -103 105 -169 74z m113 -34 c47 -44 191 -318 240 -459 67 -188 71 -298
16 -413 -31 -66 -107 -137 -172 -160 -201 -70 -478 29 -558 200 -28 60 -32
155 -9 231 31 103 246 491 314 567 62 69 119 80 169 34z"/>
<path d="M510 6346 c-112 -34 -217 -102 -296 -191 -70 -79 -216 -286 -208
-294 8 -8 41 33 112 139 31 47 93 121 137 165 124 125 238 175 395 175 141 0
260 -47 398 -158 132 -106 205 -217 287 -441 24 -64 68 -174 100 -246 168
-386 195 -489 195 -760 0 -206 -15 -315 -80 -569 -104 -409 -103 -498 5 -707
35 -70 76 -165 89 -212 26 -91 106 -623 106 -709 0 -58 -28 -124 -63 -149 -12
-9 -51 -26 -87 -39 -36 -12 -156 -58 -267 -101 -336 -131 -296 -124 -673 -124
-301 0 -328 -1 -364 -19 -49 -25 -87 -84 -122 -190 -15 -45 -37 -102 -50 -127
-22 -44 -94 -119 -114 -119 -6 0 -10 -7 -10 -15 0 -40 102 48 139 121 12 22
39 89 60 148 68 188 51 181 461 181 l325 0 87 28 c49 15 179 62 290 106 112
43 227 86 257 96 101 33 151 102 151 207 0 82 -79 611 -105 703 -14 50 -42
122 -62 160 -20 39 -49 95 -64 125 -67 134 -61 269 31 635 71 281 85 398 77
635 -9 237 -35 342 -154 610 -57 127 -76 175 -166 410 -21 53 -54 124 -75 159
-80 137 -247 282 -396 344 -62 26 -86 30 -186 33 -77 2 -130 -1 -160 -10z"/>
<path d="M557 6076 c-99 -37 -144 -86 -230 -250 -69 -132 -159 -229 -256 -277
-65 -32 -86 -49 -60 -49 6 0 42 16 80 36 99 52 180 143 255 286 103 198 184
255 344 246 59 -3 92 -12 136 -33 115 -56 187 -152 270 -362 25 -64 100 -225
165 -358 154 -310 172 -374 173 -595 0 -124 -5 -176 -23 -260 -50 -233 -148
-437 -358 -742 -134 -197 -148 -229 -148 -353 0 -138 23 -185 153 -319 151
-155 173 -225 109 -347 -59 -115 -183 -190 -316 -191 -67 0 -121 12 -441 102
-128 36 -343 80 -392 80 -10 0 -18 -4 -18 -9 0 -4 42 -14 93 -21 92 -13 269
-56 512 -124 72 -20 153 -40 180 -44 206 -31 416 117 433 305 7 83 -28 146
-147 263 -112 110 -139 163 -149 283 -8 110 14 166 144 357 247 366 338 571
380 852 21 145 14 287 -20 423 -20 77 -55 159 -151 355 -68 140 -142 301 -163
356 -79 207 -157 309 -279 367 -56 26 -82 32 -153 34 -56 2 -98 -2 -123 -11z"/>
<path d="M13018 6046 c-76 -22 -135 -55 -191 -106 -101 -93 -145 -195 -227
-520 -59 -235 -108 -401 -156 -521 -64 -164 -78 -243 -78 -439 0 -248 15 -305
208 -811 92 -241 145 -420 176 -589 10 -58 27 -126 37 -152 59 -150 187 -234
374 -245 117 -7 213 8 484 77 355 91 448 128 593 237 166 126 315 298 448 519
90 150 108 200 108 306 0 82 -2 91 -42 172 -50 99 -148 207 -273 298 -195 144
-250 266 -215 478 38 231 5 472 -92 665 -37 75 -182 291 -244 366 -103 123
-243 208 -410 250 -107 27 -426 36 -500 15z m399 -17 c101 -14 241 -60 317
-106 160 -96 395 -417 474 -648 54 -159 66 -331 36 -529 -14 -90 -15 -119 -5
-173 23 -124 84 -210 221 -311 110 -80 232 -208 268 -281 68 -136 66 -229 -7
-378 -100 -203 -264 -416 -422 -548 -196 -164 -257 -192 -629 -289 -342 -88
-477 -104 -605 -71 -169 45 -255 145 -290 340 -39 216 -110 445 -248 795 -114
293 -142 416 -142 635 0 191 11 247 100 490 43 116 75 227 140 485 26 102 58
216 72 253 64 178 174 291 323 333 56 15 293 18 397 3z"/>
<path d="M13266 5884 c-96 -23 -182 -70 -256 -140 -55 -53 -77 -83 -114 -157
-51 -106 -67 -166 -96 -367 -31 -218 -66 -343 -129 -468 -92 -182 -112 -265
-112 -454 2 -234 17 -287 208 -728 47 -107 116 -271 154 -365 39 -93 81 -187
94 -207 54 -81 173 -135 320 -145 98 -6 306 15 456 47 343 73 601 292 777 658
46 96 47 98 47 197 0 92 -2 104 -29 153 -37 65 -131 154 -217 205 -35 20 -113
58 -174 83 -176 73 -213 93 -243 131 -23 31 -27 46 -27 97 0 57 5 70 72 191
82 148 119 249 134 367 22 161 -26 353 -130 513 -64 100 -156 217 -200 257
-136 122 -354 176 -535 132z m273 -19 c142 -34 251 -110 354 -248 206 -276
265 -499 196 -747 -11 -41 -48 -127 -81 -190 -34 -63 -70 -132 -81 -154 -31
-60 -34 -126 -7 -181 27 -57 64 -82 201 -139 355 -147 479 -264 479 -451 0
-72 -13 -112 -71 -228 -158 -316 -394 -517 -698 -598 -93 -24 -358 -59 -449
-59 -144 1 -273 47 -338 124 -18 21 -45 71 -60 110 -15 39 -93 227 -175 417
-223 523 -228 541 -230 784 -1 177 8 212 106 430 70 156 97 243 120 388 8 53
22 140 30 192 42 264 140 418 323 509 108 54 256 70 381 41z"/>
<path d="M13323 5707 c-128 -49 -222 -156 -269 -306 -23 -71 -28 -213 -15
-388 19 -242 5 -293 -113 -422 -124 -136 -175 -245 -184 -393 -11 -196 35
-325 270 -749 155 -282 189 -324 301 -379 106 -50 189 -65 337 -57 339 18 576
173 720 472 76 157 83 228 34 326 -56 112 -173 174 -424 224 -226 44 -322 94
-406 207 -77 105 -101 207 -68 286 23 57 70 99 169 150 159 83 263 204 295
341 17 71 8 208 -19 291 -48 151 -186 317 -317 381 -58 29 -78 34 -158 36 -76
3 -101 -1 -153 -20z m253 -14 c145 -49 297 -213 354 -383 30 -87 37 -225 17
-303 -33 -126 -121 -224 -269 -303 -111 -58 -159 -100 -189 -160 -64 -134 55
-366 233 -453 35 -17 113 -43 173 -57 61 -14 148 -34 193 -45 105 -24 176 -58
236 -110 112 -99 119 -203 26 -394 -151 -312 -436 -472 -805 -452 -154 8 -267
56 -346 145 -40 46 -172 274 -289 500 -107 205 -150 346 -150 485 1 161 51
274 185 418 114 121 132 188 114 423 -20 264 -3 397 66 510 96 159 286 235
451 179z"/>
<path d="M13452 5459 c-18 -6 -50 -27 -71 -48 -120 -120 -43 -347 131 -391
124 -31 242 78 224 207 -15 106 -93 210 -173 232 -45 13 -66 13 -111 0z m159
-45 c46 -32 95 -122 105 -191 19 -148 -131 -238 -262 -157 -82 50 -129 162
-105 251 32 118 162 167 262 97z"/>
<path d="M13082 4124 c-46 -32 -65 -102 -51 -183 12 -66 205 -449 276 -549
180 -252 530 -284 749 -67 118 116 158 251 105 352 -39 78 -122 115 -349 158
-240 45 -305 74 -477 210 -38 30 -88 64 -111 75 -48 24 -111 26 -142 4z m166
-41 c34 -21 85 -58 113 -82 115 -99 220 -142 449 -186 282 -53 352 -100 354
-235 1 -149 -155 -316 -340 -364 -202 -52 -396 28 -517 212 -72 109 -247 461
-257 517 -11 65 4 129 38 155 39 31 89 26 160 -17z"/>
<path d="M18396 6034 c-136 -42 -238 -163 -266 -316 -13 -69 1 -173 33 -237
29 -59 109 -139 174 -174 108 -58 301 -85 376 -53 18 7 46 29 64 47 94 99 94
330 1 519 -92 188 -224 262 -382 214z m167 -18 c84 -30 142 -91 202 -213 97
-198 78 -455 -40 -520 -112 -63 -376 3 -481 121 -60 66 -81 109 -94 192 -23
140 39 290 152 367 91 63 181 81 261 53z"/>
<path d="M19185 5688 c-4 -40 -2 -100 3 -133 9 -55 10 -50 11 73 0 72 -1 132
-3 132 -2 0 -7 -33 -11 -72z"/>
<path d="M9915 5610 c-93 -10 -235 -24 -315 -30 -80 -6 -172 -18 -205 -27
-163 -41 -283 -137 -354 -285 -35 -74 -176 -500 -245 -743 -95 -333 -69 -556
79 -701 30 -28 118 -94 197 -147 152 -101 248 -187 323 -288 66 -90 105 -163
185 -348 100 -233 163 -313 295 -375 53 -24 195 -33 266 -16 75 17 212 90 287
151 93 77 152 162 267 391 145 287 242 449 409 682 193 270 328 470 359 531
83 165 75 336 -24 484 -78 118 -187 187 -339 216 -253 48 -336 75 -431 138
-30 20 -121 100 -203 178 -117 111 -164 148 -215 172 -82 39 -123 41 -336 17z
m325 -32 c40 -18 98 -65 203 -164 162 -152 254 -220 344 -254 54 -20 182 -51
332 -79 171 -33 321 -170 366 -335 22 -82 16 -198 -14 -277 -27 -70 -130 -228
-341 -524 -203 -283 -288 -423 -447 -731 -136 -265 -191 -343 -296 -420 -137
-100 -245 -138 -377 -132 -194 9 -298 108 -415 393 -129 315 -246 462 -505
633 -266 176 -330 272 -330 493 0 151 15 215 162 684 116 370 148 444 233 530
100 101 212 147 390 160 77 5 398 36 505 49 71 8 136 -1 190 -26z"/>
<path d="M9765 5190 c-100 -9 -167 -29 -275 -82 -69 -34 -102 -60 -175 -133
-102 -102 -143 -166 -193 -298 -106 -283 -79 -450 102 -630 181 -181 552 -416
736 -466 83 -23 242 -28 320 -10 72 16 200 84 265 140 182 156 357 453 372
627 11 142 -40 246 -192 388 -259 241 -487 387 -688 438 -114 30 -170 35 -272
26z m179 -25 c213 -37 417 -147 661 -358 156 -134 221 -205 257 -282 58 -126
48 -235 -38 -407 -147 -293 -336 -475 -547 -527 -73 -18 -222 -15 -301 5 -233
59 -738 411 -839 584 -33 58 -57 149 -57 221 0 139 97 391 198 514 52 64 140
133 225 177 100 52 183 74 338 87 9 0 55 -6 103 -14z"/>
<path d="M9817 5009 c-169 -19 -303 -83 -417 -198 -171 -173 -222 -374 -138
-547 45 -93 162 -210 304 -304 208 -137 356 -198 509 -207 174 -10 299 40 430
172 122 122 173 243 178 417 2 72 -2 91 -25 140 -42 90 -91 158 -170 236 -221
217 -450 317 -671 291z m218 -35 c121 -29 262 -111 398 -231 91 -81 155 -161
199 -251 30 -61 33 -74 31 -150 -4 -147 -49 -268 -137 -372 -143 -168 -344
-233 -559 -181 -247 59 -592 300 -686 479 -85 163 -34 361 138 532 165 165
390 228 616 174z"/>
<path d="M9750 4794 c-206 -70 -320 -202 -320 -371 0 -95 24 -139 144 -258 83
-83 116 -108 186 -143 118 -58 194 -77 315 -76 135 0 197 24 281 108 135 135
148 319 36 491 -142 219 -417 326 -642 249z m307 -19 c230 -74 405 -290 390
-481 -6 -81 -46 -167 -104 -226 -176 -179 -528 -127 -760 113 -121 126 -136
155 -131 258 4 94 32 153 103 220 135 128 327 172 502 116z"/>
<path d="M9875 4603 c-81 -18 -150 -65 -181 -124 -52 -102 53 -263 203 -309
123 -38 220 -19 282 57 77 94 50 221 -67 310 -56 43 -183 78 -237 66z m80 -24
c106 -19 186 -74 227 -154 41 -79 21 -157 -55 -218 -101 -82 -313 -21 -395
114 -29 46 -33 61 -29 102 3 38 11 56 38 83 37 39 78 63 124 75 17 4 30 7 31
8 0 1 27 -4 59 -10z"/>
<path d="M670 5433 c-14 -3 -60 -20 -102 -39 -42 -19 -112 -43 -154 -54 -92
-24 -282 -50 -360 -50 -29 0 -54 -4 -54 -10 0 -14 91 -12 222 5 146 19 249 46
357 92 146 63 208 50 355 -73 140 -119 252 -284 291 -429 25 -92 30 -244 11
-355 -39 -241 -123 -395 -349 -646 -167 -185 -237 -305 -316 -542 -98 -293
-163 -347 -438 -359 -78 -4 -133 -10 -133 -16 0 -15 255 -1 315 17 136 42 199
120 271 340 76 233 144 354 293 521 241 269 320 405 368 625 24 114 24 320 0
410 -41 155 -149 318 -294 443 -111 96 -203 135 -283 120z"/>
<path d="M0 5051 c0 -8 98 -11 314 -11 302 0 317 -1 412 -25 188 -48 282 -149
315 -339 14 -82 7 -154 -26 -261 -42 -138 -99 -220 -284 -410 -179 -182 -254
-275 -353 -437 -99 -163 -199 -250 -327 -283 -25 -6 -46 -16 -48 -22 -3 -8 11
-7 48 2 138 37 246 127 339 284 90 151 206 297 351 441 75 74 153 157 173 184
79 105 141 261 152 385 12 130 -40 283 -125 368 -50 50 -88 72 -186 104 -66
21 -89 23 -412 26 -240 3 -343 1 -343 -6z"/>
<path d="M215 4763 c-152 -31 -215 -48 -215 -56 0 -5 10 -7 22 -4 210 45 245
49 363 44 66 -3 142 -12 168 -20 142 -45 204 -160 158 -290 -27 -78 -74 -134
-185 -218 -169 -128 -234 -188 -350 -323 -64 -74 -130 -144 -146 -156 -40 -28
-39 -46 1 -23 17 10 83 77 145 149 131 152 190 208 322 306 163 120 216 184
243 293 24 97 -29 208 -123 256 -62 31 -163 49 -278 48 -58 -1 -114 -3 -125
-6z"/>
<path d="M3535 4040 c-81 -13 -119 -26 -192 -66 -186 -103 -266 -327 -249
-698 13 -283 73 -446 220 -604 110 -117 241 -196 412 -248 74 -23 109 -27 209
-28 120 -1 121 -1 197 37 119 59 230 186 418 480 45 71 91 153 101 183 23 66
25 171 3 243 -23 77 -135 310 -188 389 -108 163 -271 268 -467 302 -86 15
-390 21 -464 10z m415 -24 c215 -29 366 -115 486 -276 37 -51 179 -336 198
-400 23 -79 21 -183 -7 -250 -47 -115 -271 -441 -376 -547 -149 -151 -328
-172 -598 -71 -236 89 -400 249 -483 470 -69 187 -79 564 -19 750 62 191 194
302 387 327 105 13 297 12 412 -3z"/>
<path d="M3656 3830 c-123 -39 -246 -149 -297 -264 -63 -143 -64 -388 -2 -546
80 -202 238 -328 433 -346 223 -21 401 118 465 361 20 79 21 344 0 450 -36
188 -140 305 -310 350 -82 21 -215 19 -289 -5z m338 -31 c124 -48 208 -159
241 -316 20 -94 20 -370 0 -446 -38 -145 -140 -275 -249 -316 -283 -106 -577
86 -642 419 -19 96 -15 259 9 345 43 156 152 270 311 327 74 27 247 20 330
-13z"/>
<path d="M11493 3181 c-131 -45 -204 -136 -274 -342 -43 -127 -78 -195 -134
-257 -65 -72 -111 -102 -245 -157 -63 -26 -212 -95 -330 -155 -353 -176 -403
-190 -839 -221 -401 -30 -456 -22 -642 93 -154 95 -175 103 -261 103 -70 0
-79 -2 -115 -31 -79 -64 -102 -139 -110 -354 -6 -174 4 -233 54 -308 42 -61
81 -85 239 -147 157 -61 274 -127 362 -203 232 -200 507 -300 977 -357 322
-39 535 -123 701 -278 133 -124 202 -237 273 -448 44 -131 73 -162 34 -37 -32
104 -91 242 -135 314 -52 87 -170 208 -267 272 -161 108 -316 158 -616 197
-104 14 -226 32 -270 41 -233 44 -490 154 -634 271 -168 136 -248 182 -450
259 -136 51 -176 81 -216 159 l-30 59 0 175 c0 235 26 318 115 379 30 21 44
23 101 19 70 -4 94 -15 251 -111 42 -26 109 -59 150 -74 67 -24 85 -27 213
-26 171 0 554 30 650 50 130 27 254 75 452 176 109 56 256 125 328 155 157 65
210 98 274 170 57 64 97 140 145 278 42 122 78 187 131 241 123 123 296 121
438 -6 110 -98 211 -285 281 -520 42 -142 119 -249 236 -330 64 -44 108 -64
245 -115 206 -77 350 -167 459 -287 32 -34 101 -128 154 -208 109 -163 230
-293 397 -427 273 -219 425 -469 491 -809 16 -83 21 -258 9 -337 -5 -29 -4
-47 3 -47 27 0 32 259 7 389 -22 115 -76 275 -126 374 -89 177 -186 296 -353
430 -171 137 -310 285 -408 433 -47 72 -110 159 -138 193 -108 130 -285 242
-505 321 -271 98 -402 226 -460 450 -75 289 -253 538 -423 590 -79 24 -122 25
-189 1z"/>
<path d="M19120 2681 c-73 -23 -169 -73 -255 -131 -141 -95 -234 -130 -415
-155 -205 -29 -318 -80 -416 -188 -91 -99 -120 -187 -90 -273 24 -72 56 -105
200 -213 153 -115 189 -153 458 -491 107 -135 217 -270 244 -300 28 -30 98
-111 156 -180 124 -146 198 -221 198 -199 0 8 -21 35 -46 59 -25 25 -94 101
-152 170 -59 69 -135 158 -169 197 -35 40 -133 162 -220 270 -261 330 -301
373 -447 482 -152 114 -168 130 -197 195 -39 88 -6 186 95 287 95 95 206 140
416 169 163 22 239 52 392 151 116 76 208 121 282 140 25 6 46 15 46 20 0 13
-17 10 -80 -10z"/>
<path d="M11612 2678 c-15 -15 -16 -72 -1 -99 16 -31 57 -43 85 -24 34 22 32
69 -5 106 -31 31 -59 37 -79 17z m68 -28 c24 -24 26 -63 5 -80 -25 -21 -65 12
-65 54 0 51 24 62 60 26z"/>
<path d="M7679 2567 c-68 -19 -136 -63 -163 -105 -39 -61 -49 -106 -44 -212 3
-91 7 -104 46 -182 52 -105 145 -199 249 -250 63 -31 75 -33 169 -33 95 0 103
2 137 28 74 57 114 184 97 308 -19 133 -82 251 -183 345 -99 92 -210 128 -308
101z m203 -49 c154 -82 271 -280 270 -457 0 -84 -18 -146 -59 -199 -37 -49
-82 -65 -173 -60 -155 7 -310 118 -386 275 -33 68 -39 90 -42 165 -7 142 23
218 105 269 90 56 189 58 285 7z"/>
<path d="M5412 2509 c-63 -12 -159 -67 -199 -113 -77 -90 -110 -198 -99 -331
8 -106 63 -508 77 -560 44 -166 223 -279 444 -280 123 0 190 19 276 78 108 73
165 182 190 362 14 100 4 271 -21 370 -49 193 -176 345 -358 427 -111 50 -215
66 -310 47z m164 -20 c77 -13 225 -86 290 -141 155 -133 218 -294 218 -558 0
-262 -64 -409 -212 -488 -119 -63 -232 -77 -365 -43 -86 23 -135 45 -192 91
-84 67 -105 126 -146 416 -41 285 -44 422 -11 505 41 102 135 187 241 215 58
16 102 17 177 3z"/>
<path d="M5545 2187 c-42 -19 -83 -70 -92 -115 -14 -67 -7 -173 17 -237 98
-256 362 -183 360 99 -1 102 -42 180 -119 232 -47 30 -124 40 -166 21z m104
-13 c47 -10 115 -75 141 -136 19 -43 22 -65 18 -128 -10 -158 -105 -249 -212
-201 -79 35 -128 137 -129 271 -1 72 2 92 22 127 35 61 84 82 160 67z"/>
<path d="M19166 2343 c-16 -8 -141 -94 -279 -191 -165 -116 -259 -188 -278
-215 -123 -170 -28 -464 276 -852 43 -55 118 -152 166 -215 48 -63 99 -126
113 -139 42 -40 42 -15 0 31 -22 24 -75 90 -119 148 -44 58 -113 148 -154 200
-267 341 -370 617 -289 775 14 28 37 60 51 73 20 19 475 341 534 378 29 18 11
24 -21 7z"/>
<path d="M10831 2235 c-109 -25 -161 -45 -316 -122 -223 -112 -293 -136 -615
-213 -263 -62 -391 -168 -420 -345 -32 -196 140 -410 393 -490 113 -36 219
-52 454 -70 320 -24 408 -43 580 -125 126 -60 197 -123 242 -215 50 -101 109
-294 146 -478 33 -165 39 -186 50 -175 7 7 -49 282 -81 393 -96 340 -175 436
-442 534 -122 45 -253 68 -487 86 -324 24 -431 46 -569 118 -311 162 -363 490
-103 658 71 46 136 68 335 113 210 48 308 84 517 186 240 119 299 135 485 135
138 0 148 -1 204 -28 93 -43 140 -89 222 -215 42 -64 103 -157 136 -205 110
-163 141 -271 118 -414 -21 -127 -23 -160 -10 -198 36 -108 162 -165 258 -116
85 43 100 103 58 241 -59 191 -56 257 12 368 158 259 388 327 659 196 86 -41
187 -131 246 -219 137 -203 278 -351 457 -481 142 -102 224 -173 292 -250 240
-274 306 -642 154 -854 -39 -54 -35 -66 7 -22 64 67 105 219 93 348 -27 296
-173 524 -486 757 -235 175 -352 292 -467 466 -85 127 -182 220 -284 270 -114
56 -194 74 -294 69 -119 -6 -195 -45 -299 -151 -89 -90 -131 -163 -148 -256
-12 -61 -5 -98 41 -256 31 -102 28 -140 -12 -180 -40 -40 -91 -52 -151 -35
-92 26 -140 118 -118 227 39 198 15 318 -97 481 -21 32 -81 122 -134 202 -103
159 -159 213 -259 252 -69 28 -271 35 -367 13z"/>
<path d="M19090 2024 c-196 -136 -278 -245 -288 -384 -10 -143 53 -283 254
-565 156 -218 144 -203 144 -183 0 8 -58 96 -128 195 -186 261 -252 399 -252
528 0 153 91 271 328 424 47 31 65 51 45 51 -5 0 -51 -30 -103 -66z"/>
<path d="M10738 2010 c-20 -5 -121 -47 -226 -93 -104 -47 -273 -113 -376 -147
-205 -69 -262 -99 -302 -160 -32 -49 -43 -129 -24 -185 23 -70 112 -149 204
-181 98 -35 162 -35 576 1 217 19 413 40 435 46 90 25 167 105 192 201 17 66
16 96 -2 183 -30 143 -109 251 -221 306 -53 26 -80 33 -142 35 -42 2 -93 -1
-114 -6z m234 -38 c145 -64 256 -274 233 -440 -13 -99 -95 -197 -184 -222 -20
-6 -212 -26 -427 -45 -496 -44 -548 -40 -684 60 -85 62 -114 169 -70 255 37
72 92 103 315 175 88 29 239 88 335 130 96 43 200 87 230 97 72 24 186 20 252
-10z"/>
<path d="M2135 1975 c-23 -15 -66 -63 -100 -112 -33 -47 -88 -122 -124 -167
-228 -290 -290 -465 -267 -761 9 -131 0 -244 -29 -330 -9 -27 -57 -134 -106
-238 -86 -182 -120 -267 -132 -334 -8 -40 10 -45 18 -5 15 68 62 185 145 359
49 104 97 218 106 254 17 65 21 153 16 394 -5 223 54 370 265 651 70 93 142
190 159 215 17 25 47 53 66 62 101 48 264 -9 309 -107 37 -82 27 -124 -104
-401 -199 -426 -215 -595 -67 -743 24 -23 124 -100 224 -171 99 -71 235 -170
301 -220 137 -105 275 -177 460 -241 66 -23 135 -50 153 -61 36 -21 57 -25 47
-9 -11 17 -76 46 -211 95 -198 71 -294 122 -449 240 -77 59 -212 157 -300 218
-88 62 -180 132 -205 157 -148 146 -131 313 78 755 44 94 88 194 97 223 52
157 -56 291 -240 300 -62 3 -75 0 -110 -23z"/>
<path d="M19134 1797 c-80 -74 -107 -130 -112 -229 -6 -107 36 -222 136 -378
52 -82 50 -44 -2 42 -77 126 -109 212 -114 304 -4 72 -1 88 21 135 25 55 59
96 110 136 16 12 27 28 25 34 -2 6 -31 -13 -64 -44z"/>
<path d="M914 1825 c-139 -25 -243 -76 -320 -157 -56 -59 -485 -656 -564 -785
-17 -29 -30 -59 -27 -65 2 -7 17 9 33 36 78 132 507 728 578 804 55 58 151
111 251 138 81 22 367 31 419 14 51 -17 102 -63 118 -108 16 -45 15 -301 -2
-437 -6 -49 -15 -184 -20 -300 -11 -245 -26 -338 -75 -478 -55 -155 -83 -254
-100 -358 -17 -109 -18 -129 -6 -129 5 0 12 26 16 58 13 112 37 209 91 370 67
199 83 282 90 482 3 85 12 223 20 305 9 83 16 222 17 310 1 147 0 163 -20 201
-27 52 -72 90 -121 104 -51 14 -291 11 -378 -5z"/>
<path d="M920 1471 c-48 -10 -94 -35 -141 -78 -131 -118 -290 -395 -373 -649
-66 -199 -143 -296 -292 -366 -45 -21 -89 -38 -98 -38 -9 0 -16 -5 -16 -11 0
-18 56 -3 138 38 143 70 223 178 297 398 36 110 114 276 183 390 80 133 189
252 260 282 59 25 134 21 180 -10 70 -46 77 -73 76 -307 0 -178 -3 -216 -22
-290 -23 -89 -84 -222 -151 -328 -71 -113 -78 -215 -28 -389 17 -62 35 -113
40 -113 12 0 8 20 -23 124 -52 173 -40 257 63 427 115 191 142 301 142 579 0
204 0 205 -27 250 -41 71 -125 107 -208 91z"/>
<path d="M6985 1310 c-36 -14 -117 -77 -290 -225 -132 -113 -278 -233 -325
-266 -103 -73 -239 -141 -340 -168 -80 -22 -320 -46 -565 -56 -241 -10 -378
-35 -533 -96 -207 -82 -465 -280 -564 -433 -21 -33 -35 -62 -32 -65 3 -3 12 3
20 14 79 111 116 153 191 217 200 170 382 264 608 313 39 9 185 22 325 30 482
27 571 43 749 135 121 62 220 137 493 371 119 103 234 194 255 204 97 46 201
21 253 -61 17 -27 37 -86 54 -161 54 -235 80 -289 185 -393 83 -83 154 -125
312 -186 280 -108 376 -184 491 -388 57 -103 56 -101 64 -94 7 8 -39 98 -92
179 -96 145 -200 219 -440 315 -164 65 -254 117 -323 186 -99 99 -121 148
-181 398 -36 147 -60 188 -133 225 -61 30 -113 31 -182 5z"/>
<path d="M14560 1171 c-84 -28 -123 -68 -160 -166 -20 -51 -23 -77 -22 -180 1
-160 69 -806 87 -823 14 -15 13 20 -10 199 -40 317 -56 486 -57 619 -1 109 2
133 22 185 29 75 81 129 140 145 48 13 218 10 505 -10 83 -5 287 -16 455 -25
386 -18 462 -36 558 -128 72 -70 82 -113 98 -407 14 -278 32 -522 40 -558 2
-12 8 -22 12 -22 4 0 2 66 -5 147 -6 82 -17 254 -23 383 -12 265 -22 335 -55
400 -44 85 -112 132 -246 170 -60 17 -134 23 -384 35 -170 9 -375 20 -455 26
-209 14 -471 20 -500 10z"/>
<path d="M12813 1081 c-41 -25 -48 -62 -29 -145 32 -135 115 -254 275 -391
167 -143 286 -206 388 -206 94 0 162 54 178 142 8 46 -16 145 -53 213 -79 148
-307 313 -531 385 -84 27 -184 28 -228 2z m251 -32 c190 -66 380 -197 464
-322 128 -190 89 -368 -80 -368 -101 0 -217 63 -383 209 -162 141 -228 235
-260 370 -28 113 -7 140 109 141 41 1 86 -8 150 -30z"/>
<path d="M15085 999 c-274 -40 -430 -169 -481 -396 -14 -64 -16 -107 -10 -262
6 -195 24 -332 42 -338 7 -2 6 21 -3 74 -7 43 -16 164 -19 268 -7 214 3 279
55 383 95 186 287 262 661 262 420 0 592 -80 659 -306 17 -57 70 -399 97 -626
3 -32 11 -58 16 -58 7 0 8 21 4 58 -18 144 -78 562 -88 602 -63 258 -251 352
-698 349 -96 -1 -202 -5 -235 -10z"/>
<path d="M15255 855 c-181 -34 -310 -109 -386 -228 -43 -67 -62 -126 -80 -246
-17 -121 1 -369 27 -378 9 -3 9 9 1 44 -17 83 -14 349 6 422 40 146 121 245
250 306 112 53 186 70 312 69 234 -1 398 -98 466 -274 30 -78 74 -282 95 -437
10 -73 22 -133 26 -133 13 0 9 51 -18 212 -65 392 -126 512 -301 595 -119 57
-259 74 -398 48z"/>
<path d="M16832 817 c-174 -73 -310 -294 -332 -540 -10 -113 -2 -277 13 -277
6 0 8 32 4 89 -15 207 27 386 124 534 89 137 202 204 323 195 73 -6 104 -21
267 -128 237 -155 356 -157 570 -13 144 97 176 108 309 108 106 0 121 -3 191
-31 115 -46 203 -111 366 -266 82 -77 227 -206 323 -286 96 -80 183 -152 193
-160 14 -13 17 -13 16 -1 0 8 -28 37 -62 65 -216 177 -318 265 -449 391 -259
247 -405 322 -608 310 -104 -6 -146 -22 -281 -108 -132 -85 -211 -113 -295
-106 -79 6 -147 37 -299 136 -66 44 -142 86 -168 95 -66 22 -141 20 -205 -7z"/>
<path d="M9275 818 c-139 -19 -269 -88 -410 -217 -154 -140 -237 -269 -255
-391 -11 -73 -2 -210 13 -210 6 0 7 27 3 73 -17 199 61 351 271 532 157 135
301 198 453 197 120 0 750 -79 905 -113 198 -43 391 -139 518 -258 75 -70 162
-192 217 -304 28 -56 50 -108 50 -114 0 -7 5 -13 10 -13 15 0 12 15 -16 83
-137 325 -396 537 -761 622 -106 25 -689 102 -888 118 -27 2 -77 0 -110 -5z"/>
<path d="M6803 795 c-75 -21 -118 -44 -298 -165 -310 -209 -387 -232 -663
-204 -207 21 -440 21 -560 0 -190 -34 -400 -120 -547 -224 -84 -59 -222 -188
-212 -198 3 -4 40 24 80 63 168 159 351 259 584 318 182 46 388 50 713 15 145
-16 265 6 398 74 29 15 121 73 205 130 184 125 250 161 322 176 105 22 188
-11 305 -120 159 -148 327 -242 620 -345 183 -65 298 -141 380 -254 40 -54 60
-73 60 -55 0 25 -99 138 -166 191 -78 60 -125 83 -318 155 -273 102 -409 180
-567 325 -123 113 -225 148 -336 118z"/>
<path d="M15273 656 c-177 -56 -283 -259 -270 -515 5 -109 12 -141 29 -141 6
0 7 8 3 17 -4 10 -9 66 -12 125 -12 240 81 426 243 487 49 19 74 22 149 19 77
-3 98 -8 144 -33 31 -17 71 -51 92 -77 68 -87 129 -268 149 -442 9 -85 14
-105 25 -95 9 9 -15 183 -37 269 -58 228 -148 352 -283 389 -54 15 -180 13
-232 -3z"/>
<path d="M11690 636 c-139 -31 -198 -106 -220 -281 -10 -79 -9 -105 9 -219 12
-72 24 -132 26 -135 15 -14 13 20 -6 134 -19 114 -20 137 -10 218 14 106 35
159 82 204 47 44 107 64 221 70 163 10 280 -26 379 -115 100 -90 129 -174 129
-379 0 -82 4 -133 10 -133 14 0 13 245 -1 312 -43 207 -232 340 -481 337 -46
0 -108 -6 -138 -13z"/>
<path d="M9481 615 c-181 -33 -343 -124 -497 -280 -69 -70 -100 -110 -128
-166 -38 -78 -62 -173 -42 -166 6 2 14 23 18 48 15 87 65 168 168 270 156 157
309 243 485 274 162 28 497 14 702 -30 289 -61 531 -243 657 -493 37 -73 69
-102 42 -37 -43 103 -144 241 -231 316 -123 107 -299 198 -444 229 -217 48
-567 64 -730 35z"/>
<path d="M2000 489 c-113 -19 -222 -96 -318 -227 -75 -100 -158 -262 -135
-262 4 0 26 37 47 81 21 45 65 116 96 158 193 259 379 298 696 146 128 -62
305 -192 501 -368 12 -10 27 -17 33 -15 13 4 -189 179 -316 274 -47 35 -141
90 -207 123 -167 82 -283 108 -397 90z"/>
<path d="M9620 481 c-246 -53 -453 -198 -566 -397 -19 -33 -34 -66 -34 -72 0
-27 17 -8 47 51 96 184 284 327 513 389 75 20 108 23 280 23 213 0 275 -10
419 -65 157 -61 333 -210 411 -347 32 -57 50 -77 50 -55 0 20 -80 138 -134
198 -133 149 -306 240 -526 279 -119 21 -351 19 -460 -4z"/>
<path d="M18100 466 c-62 -18 -119 -48 -224 -119 -229 -153 -342 -163 -587
-49 -157 74 -228 100 -295 107 -128 15 -226 -43 -282 -164 -20 -44 -27 -76
-30 -148 -3 -58 -1 -93 6 -93 5 0 11 40 14 93 3 78 8 103 33 151 35 70 82 111
152 133 84 27 158 10 363 -82 108 -48 196 -81 236 -88 127 -22 247 19 438 147
122 82 208 111 300 103 90 -8 141 -35 252 -129 54 -46 129 -107 165 -135 93
-70 297 -195 311 -191 14 5 13 5 -131 93 -110 68 -212 144 -336 251 -49 42
-114 88 -143 101 -64 30 -176 39 -242 19z"/>
<path d="M6773 446 c-23 -7 -62 -25 -85 -39 -44 -25 -250 -230 -303 -300 -69
-92 -151 -98 -315 -23 -248 114 -284 128 -377 153 -83 22 -120 26 -243 27
-195 1 -342 -35 -506 -125 -93 -51 -214 -139 -191 -139 10 0 35 13 55 30 56
44 188 117 273 150 136 52 209 65 369 64 176 -1 275 -24 451 -104 62 -29 150
-69 194 -89 66 -30 91 -36 146 -36 80 0 109 18 190 115 96 116 233 244 296
275 50 25 70 30 138 30 76 0 86 -3 195 -54 216 -100 386 -160 630 -221 107
-27 194 -68 252 -120 63 -55 85 -50 25 5 -67 61 -170 109 -312 145 -217 55
-378 113 -580 207 -104 49 -130 57 -190 60 -41 2 -87 -3 -112 -11z"/>
<path d="M9719 361 c-153 -33 -286 -105 -372 -200 -47 -53 -107 -138 -107
-153 0 -19 17 -5 43 36 91 144 224 241 399 288 110 30 338 33 438 5 156 -43
280 -127 373 -251 55 -75 77 -98 77 -81 0 19 -95 137 -154 192 -72 67 -189
132 -291 159 -95 25 -301 28 -406 5z"/>
<path d="M11831 286 c-46 -15 -73 -54 -79 -114 -8 -86 35 -172 86 -172 l27 0
-24 13 c-47 24 -66 63 -66 137 0 58 4 72 23 93 44 46 104 38 155 -22 53 -63
43 -154 -22 -198 -34 -23 -34 -23 -8 -23 20 0 33 10 52 38 35 53 41 94 21 145
-31 82 -100 125 -165 103z"/>
<path d="M12724 281 c-48 -22 -79 -61 -104 -134 -23 -67 -36 -147 -22 -147 5
0 13 21 17 47 26 172 107 252 221 218 64 -19 187 -90 324 -188 61 -43 117 -77
124 -75 16 3 -243 186 -334 236 -50 27 -149 62 -174 62 -6 0 -29 -9 -52 -19z"/>
<path d="M2023 255 c-77 -21 -130 -51 -190 -108 -58 -55 -121 -147 -100 -147
7 0 21 16 31 35 11 20 40 57 65 83 154 161 384 173 596 31 41 -27 94 -72 119
-100 25 -28 51 -49 58 -47 6 2 -22 38 -64 79 -148 148 -353 217 -515 174z"/>
<path d="M9771 220 c-100 -27 -194 -81 -264 -154 -78 -80 -58 -84 24 -4 134
132 332 186 517 143 108 -26 229 -101 272 -169 20 -34 40 -47 40 -27 0 18 -68
93 -116 127 -135 97 -306 127 -473 84z"/>
<path d="M15390 202 c-16 -16 -31 -45 -35 -64 -7 -34 6 -99 24 -128 18 -28 20
-4 4 47 -18 57 -13 90 20 129 31 35 61 26 88 -28 16 -31 20 -55 17 -99 -2 -42
1 -59 10 -59 11 0 17 42 13 95 -5 58 -58 135 -94 135 -10 0 -31 -13 -47 -28z"/>
<path d="M285 46 c-33 -8 -78 -22 -100 -30 l-40 -16 35 4 c19 2 69 11 110 21
90 20 214 16 278 -10 60 -25 66 -10 6 16 -62 28 -203 35 -289 15z"/>
<path d="M2056 17 c-27 -12 -19 -13 75 -13 95 -1 101 0 69 12 -45 16 -107 16
-144 1z"/>
<path d="M9816 17 c-26 -12 -17 -13 78 -13 93 1 104 3 79 13 -37 16 -120 15
-157 0z"/>
<path d="M5245 10 c-18 -5 23 -8 105 -8 81 0 125 3 110 8 -32 10 -175 10 -215
0z"/>
</g>
</svg>
